<?xml version="1.0" ?><!DOCTYPE svg  PUBLIC '-//W3C//DTD SVG 1.1//EN'  'http://www.w3.org/Graphics/SVG/1.1/DTD/svg11.dtd'><svg enable-background="new 0 0 157.528 157.527" height="157.527" id="Layer_1" overflow="visible" version="1.1" viewBox="0 0 157.528 157.527" width="157.528" xml:space="preserve" xmlns="http://www.w3.org/2000/svg" xmlns:xlink="http://www.w3.org/1999/xlink"><g id="icon_2_"><circle cx="78.764" cy="78.764" fill="#FF6A36" r="78.764"/><path d="M47.367,99.916c-0.167-0.16-0.287-0.524-0.287-0.776c0-0.279-0.161-2.755-0.371-5.51l-0.364-5.034   l0.406-8.892c0.406-9.048,0.448-9.373,1.14-9.373c0.119,0,0.371,0.08,0.524,0.245c0.252,0.203,0.371,1.339,0.776,8.968l0.482,8.765   l-0.482,5.72c-0.287,3.168-0.566,5.846-0.692,5.965c-0.28,0.321-0.769,0.279-1.133-0.042V99.916L47.367,99.916z M51.507,99.797   c-0.209-0.286-0.371-1.985-0.65-6.083c-0.329-4.881-0.371-6.251-0.203-9.901c0.084-2.321,0.238-6.905,0.364-10.192   c0.125-3.286,0.245-6.171,0.287-6.492c0.161-1.056,1.377-1.217,1.622-0.203c0.042,0.203,0.287,5.112,0.524,10.874l0.448,10.517   l-0.448,5.434c-0.154,1.881-0.3,3.762-0.44,5.643c0,0.322-0.524,0.77-0.888,0.77c-0.209,0-0.447-0.168-0.615-0.405V99.797   L51.507,99.797z M55.73,99.881c-0.294-0.293-0.371-0.733-0.448-2.839c-0.084-1.384-0.209-3.454-0.287-4.587   c-0.245-2.881-0.203-6.615,0.077-15.509c0.167-4.216,0.287-8.479,0.287-9.534c0.042-2.15,0.203-2.797,0.776-2.961   c0.686-0.165,1.217,0.325,1.217,1.178c0,0.406,0.196,5.678,0.406,11.685l0.405,10.918l-0.405,5.482   c-0.21,2.993-0.406,5.552-0.406,5.678c0,0.322-0.531,0.77-0.937,0.77c-0.203,0-0.489-0.161-0.685-0.322V99.881L55.73,99.881z    M59.947,99.881c-0.203-0.251-0.329-0.733-0.405-1.51c-0.608-9.244-0.608-9.901-0.329-19.555   c0.363-13.311,0.447-14.573,0.769-14.894c0.329-0.325,1.224-0.325,1.51,0c0.154,0.161,0.28,2.514,0.482,7.79   c0.49,14.729,0.524,17.086,0.203,21.918c-0.364,5.476-0.406,5.958-0.77,6.286c-0.363,0.364-1.021,0.329-1.426-0.077L59.947,99.881   L59.947,99.881z M64.164,99.839c-0.196-0.209-0.364-0.657-0.364-0.937s-0.126-2.72-0.28-5.398c-0.293-4.503-0.293-5.762,0-16.677   c0.322-12.66,0.322-12.458,1.259-12.66c0.811-0.165,1.335,0.524,1.335,1.783c0,0.566,0.077,3.531,0.161,6.534   c0.084,3.003,0.21,7.587,0.287,10.188c0.042,2.552,0.119,4.79,0.161,4.916c0.042,0.111-0.084,2.671-0.28,5.678   c-0.14,1.943-0.266,3.895-0.364,5.846c0,0.482-0.657,1.133-1.216,1.133c-0.308-0.028-0.587-0.168-0.776-0.406H64.164L64.164,99.839   z M68.513,99.881c-0.371-0.37-0.406-0.811-0.776-7.307c-0.203-3.776-0.161-7.755,0.203-20.618c0.209-6.898,0.209-7.021,1.3-7.021   c0.364,0,0.728,0.123,0.937,0.367c0.364,0.367,0.364,0.65,0.524,6.573c0.042,1.867,0.203,6.413,0.287,10.066   c0.161,5.968,0.161,7.227-0.168,12.135c-0.322,5.272-0.364,5.476-0.769,5.804c-0.532,0.406-1.175,0.406-1.623,0H68.513   L68.513,99.881z M72.806,99.881c-0.238-0.251-0.364-0.699-0.448-1.51c-0.279-3.119-0.482-10.866-0.405-15.454   c0.042-2.842,0.168-7.185,0.209-9.744c0.203-10.265,0.28-11.887,0.644-12.254c0.448-0.444,1.343-0.444,1.748,0   c0.447,0.447,0.489,1.745,0.896,21.551c0.126,5.965-0.287,16.433-0.692,17.16c-0.364,0.699-1.42,0.811-1.993,0.251H72.806   L72.806,99.881z M77.24,99.839c-0.308-0.237-0.504-0.566-0.573-0.937c-0.042-0.321-0.203-2.965-0.364-5.888   c-0.202-4.182-0.244-6.691-0.126-11.807c0.084-3.57,0.21-9.496,0.287-13.146c0.119-8.36,0.203-9.171,0.692-9.661   c0.531-0.486,1.301-0.444,1.867,0.081c0.405,0.409,0.44,0.57,0.482,2.64c0,1.217,0.042,2.434,0.084,2.675   c0.041,0.245,0.083,3.695,0.167,7.671c0.084,3.975,0.161,7.265,0.196,7.307c0.21,0.322,0.042,12.087-0.196,15.743   c-0.111,1.49-0.209,2.973-0.286,4.469c0,0.44-0.818,1.217-1.336,1.217C77.882,100.203,77.477,100.042,77.24,99.839L77.24,99.839z    M81.169,99.756l-0.447-0.448V57.346l0.489-0.364c0.566-0.447,2.713-1.136,4.866-1.583c2.314-0.444,6.091-0.406,8.489,0.08   c9.565,1.99,16.391,9.335,17.929,19.317l0.126,0.65l1.58-0.447c1.343-0.364,1.832-0.444,3.573-0.364   c2.476,0.119,2.595,0.119,4.217,0.727c7.146,2.72,10.391,10.954,6.943,17.779c-1.587,3.16-3.859,5.146-7.307,6.405l-1.301,0.489   l-19.313,0.042l-19.313,0.042L81.169,99.756L81.169,99.756z M43.102,99.588c-0.077-0.196-0.322-2.881-0.566-5.923   c-0.406-5.356-0.406-5.602-0.119-9.007c0.161-1.908,0.322-4.262,0.406-5.195c0.126-1.703,0.405-2.517,0.853-2.517   c0.566,0,0.727,0.65,1.217,5.804l0.489,5.271l-0.489,5.608c-0.238,3.077-0.532,5.762-0.608,6c-0.077,0.293-0.287,0.405-0.608,0.405   s-0.489-0.112-0.615-0.405L43.102,99.588L43.102,99.588z M39.046,99.672c-0.042-0.084-0.322-2.672-0.566-5.763l-0.49-5.601   l0.49-5.797c0.245-3.209,0.566-5.933,0.65-6.052c0.245-0.283,0.608-0.283,0.853,0c0.125,0.122,0.447,2.8,0.727,6.01l0.531,5.762   l-0.531,5.595c-0.28,3.09-0.56,5.691-0.602,5.804c-0.083,0.251-0.937,0.335-1.063,0.084V99.672L39.046,99.672z M35.033,99.224   c-0.084-0.111-0.371-2.587-0.616-5.51l-0.489-5.321l0.447-5.034c0.245-2.759,0.49-5.395,0.532-5.801   c0.119-0.811,0.489-1.136,0.853-0.772c0.119,0.122,0.448,2.514,0.769,5.72l0.574,5.517l-0.532,5.321   c-0.287,2.916-0.615,5.476-0.692,5.721c-0.203,0.447-0.608,0.524-0.853,0.202v-0.042H35.033z M30.935,97.524   c-0.042-0.16-0.329-2.398-0.574-4.915l-0.489-4.58l0.531-4.664c0.49-4.469,0.566-4.671,0.937-4.752   c0.44-0.08,0.406-0.283,1.133,5.353l0.532,4.224l-0.532,4.42c-0.287,2.44-0.608,4.587-0.692,4.831   c-0.203,0.49-0.65,0.532-0.776,0.084H30.935L30.935,97.524z M27.159,94.119c-0.196-1.014-0.357-2.027-0.49-3.049l-0.364-2.755   l0.406-2.923c0.203-1.622,0.489-3.049,0.566-3.167c0.406-0.486,0.692,0.286,1.098,3.167l0.448,2.923l-0.448,2.916   c-0.245,1.629-0.573,3-0.692,3.084c-0.329,0.202-0.448,0.168-0.566-0.168L27.159,94.119L27.159,94.119z" fill="#FFFFFF"/></g></svg>