<?xml version="1.0" ?><!DOCTYPE svg  PUBLIC '-//W3C//DTD SVG 1.1//EN'  'http://www.w3.org/Graphics/SVG/1.1/DTD/svg11.dtd'><svg enable-background="new 0 0 512 512" id="Layer_1" version="1.1" viewBox="0 0 512 512" xml:space="preserve" xmlns="http://www.w3.org/2000/svg" xmlns:xlink="http://www.w3.org/1999/xlink"><g><path d="M268.8,251.8c0-32,0.1-64-0.1-96c0-5.8,2-8.6,7.4-10.6c53-19.3,111.7,3.7,137,54.1   c5.2,10.3,8.8,21.2,10.1,32.7c0.7,6.4,0.9,6.4,7.3,4.5c36.8-11,74.1,13.4,79.7,51.4c5,34-21.1,67.4-55.3,70.3   c-4,0.3-8,0.6-11.9,0.6c-54.1,0-108.3,0-162.4,0c-9.8,0-11.7-1.9-11.7-11.5C268.8,315.5,268.8,283.7,268.8,251.8z" fill="#A7A7A7"/><path d="M245.9,290.6c1.1-20.1,0.8-41.1,1.5-62c0.4-13.3,0.4-26.6,0.7-40c0.2-8.8,0.6-17.6,0.8-26.5   c0.1-5.5,2.5-8.8,6.5-9c4.4-0.2,7.3,3.2,7.4,8.7c0.4,22.8,0.8,45.6,1.3,68.4c0.5,20.6,1.3,41.3,1.6,61.9   c0.2,16.5-1.5,32.9-2.4,49.3c-0.2,3.5-0.1,7-0.7,10.5c-0.7,3.8-2.9,6.3-7.2,6.1c-4.3-0.2-6.2-2.9-6.4-6.9   C247.7,331.3,246.3,311.4,245.9,290.6z" fill="#A8A8A8"/><path d="M227.2,284.6c0-28.1-0.2-56.3,0.1-84.4c0.1-9,0.4-18,0.6-26.9c0.1-4.6,2.8-8,6.4-8.1   c3.6-0.1,6.5,3.3,6.6,7.8c0.3,9.8,0.6,19.6,0.8,29.4c0.5,27.6,0.5,55.3,1.5,82.9c0.9,22.2-1.9,44.2-2.3,66.3   c-0.1,4.2-2.5,6.5-6.3,7c-3.4,0.5-6.5-3-6.7-7.2C227.1,329.1,225.2,306.9,227.2,284.6z" fill="#A8A8A8"/><path d="M222.4,294.3c-1.1,19.4-2.3,38.8-3.4,58.3c-0.2,3.8-2.4,6.1-6.1,5.9c-3.5-0.2-5.7-2.5-5.9-6.2   c-0.7-11.8-1.3-23.6-2-35.4c-1.2-20.3,0-40.6,0.2-60.9c0.3-20.6,1.1-41.2,1.7-61.9c0.1-5.2,2.4-8.4,6.2-8c4.5,0.5,5.8,3.6,5.9,7.8   c0.7,26.8,1.8,53.6,2.2,80.4C221.3,281,221.8,287.6,222.4,294.3z" fill="#A8A8A8"/><path d="M183.3,301.7c0.7-30.3,1-56.8,2-83.2c0.4-9.3,0.5-18.6,0.7-27.9c0.1-4.1,0.9-7.5,5.8-7.6   c4.8-0.2,5.4,3.5,5.9,7.1c0.1,0.8,0,1.7,0.1,2.5c0.8,31.6,1,63.2,2.5,94.8c1,21.4-2.3,42.4-2.6,63.7c0,3.6-1,7.3-5.8,7.1   c-4.9-0.1-5.7-3.5-5.9-7.6C185.1,332.9,184.1,315.3,183.3,301.7z" fill="#A8A8A8"/><path d="M179.1,287.1c1.3,19.7-1.9,42.4-3.1,65.1c-0.2,3.3-1.2,6-5.2,5.9c-4.2-0.1-5.3-3-5.5-6.4   c-0.8-13.9-1.7-27.9-2.3-41.9c-1.1-27.5,0.7-54.9,1.4-82.3c0.3-12.5,0.3-25,0.8-37.4c0.1-1.5,0-3,0.2-4.5c0.5-3,1.6-5.7,5.2-5.5   c3.7,0.2,5.1,2.6,5.3,6c0.2,5.6,0.6,11.3,0.7,16.9C177.5,230.1,178.2,257,179.1,287.1z" fill="#A8A8A8"/><path d="M141.9,295.3c0.8-30.8,1.6-58.4,2.4-86c0.2-6.3,0.6-12.6,0.7-19c0.1-3.3,1.3-5.9,4.6-6.1   c3.8-0.3,5,2.8,5.2,6c0.5,8,0.7,16,0.8,23.9c0.5,30.1,3.2,60.2,2.4,90.4c-0.4,15.8-2,31.5-3.1,47.3c-0.2,2.9-0.7,6.3-4.9,6.2   c-4.4-0.1-4.8-3.2-4.9-6.6C144,331.7,141.5,312,141.9,295.3z" fill="#A8A8A8"/><path d="M121.3,296.4c1-31.1,2-62.1,3-93.2c0.1-2,0.4-4,0.7-5.9c0.3-2.2,1.5-3.8,3.8-4c2.5-0.2,4,1.4,4.4,3.8   c0.3,1.5,0.6,2.9,0.6,4.4c0.8,21.6,1.1,43.2,2.4,64.8c0.6,10.6,0.9,21.3,1.3,31.9c0.4,9.4-1.1,18.9-1.8,28.3   c-0.5,7.3-1.2,14.6-1.8,21.8c-0.1,1.3,0,2.7-0.2,4c-0.5,2.8-0.8,6-4.5,6.2c-3.8,0.2-4.4-3-4.7-5.9c-0.9-11.1-1.7-22.2-2.4-33.3   c-0.5-7.6-0.8-15.3-1.2-22.9C121,296.4,121.1,296.4,121.3,296.4z" fill="#A8A8A8"/><path d="M101.1,291.6c0.9-21,2-46.7,3.1-72.5c0.1-1.9,0.3-3.7,1.6-5.1c1-1.1,2.3-1.2,3.7-0.9c2,0.4,2.6,2,2.7,3.7   c0.6,9.1,1.2,18.2,1.8,27.4c1,16.8,2,33.5,2.8,50.3c0.6,11.7-1.7,23.2-2.2,34.8c-0.3,6.3-1,12.6-1.6,18.9c-0.2,2-0.3,4-0.6,5.9   c-0.3,2.3-1.3,4.2-4.1,4c-2.8-0.1-3.6-2.2-3.9-4.4c-0.7-4.3-0.7-8.6-0.8-12.9C102.9,326,100.5,311.3,101.1,291.6z" fill="#A8A8A8"/><path d="M96.3,300.4c-1.3,14.9-2.5,29.5-3.8,44c-0.2,2.8-0.3,5.6-0.7,8.4c-0.3,2.3-0.7,5-3.8,4.9   c-3.1,0-3.5-2.7-3.7-5c-0.8-9.3-1.4-18.5-2.1-27.8c-0.6-7.4-1.8-14.9-1.7-22.3c0.1-9.4,1.1-18.9,1.9-28.3c0.5-7,1.2-13.9,1.8-20.8   c0.1-1.5,0.3-3,0.5-4.4c0.3-2,1.3-3.6,3.5-3.5c2.1,0.1,3.3,1.7,3.5,3.6c0.4,3.1,0.6,6.3,0.9,9.4C93.8,272.6,95.1,286.7,96.3,300.4z   " fill="#A8A8A8"/><path d="M76,300.2c-1.1,12.4-2.3,24.8-3.4,37.2c-0.5,5.1-1.1,10.2-1.5,15.3c-0.2,2.2-0.5,4.2-3.2,4.2   c-2.4,0-2.8-1.8-3-3.8C63.9,343,63,333,62.1,322.9c-0.6-6.4-1.1-12.9-1.8-19.3c-0.6-5.5,0.7-10.9,1-16.4   c0.6-12.6,1.9-25.1,2.9-37.7c0.1-1.3,0.5-2.6,0.7-3.9c0.2-1.8,0.8-3.4,2.8-3.5c2-0.1,3,1.2,3.2,3.1C72.6,263.5,74.3,281.8,76,300.2   z" fill="#A8A8A8"/><path d="M55.7,300.1c-1,10.3-2.1,20.9-3.2,31.4c-0.5,5.3-1.1,10.6-1.7,15.8c-0.2,1.5-0.2,3-0.5,4.4   c-0.3,1.5-1,3-2.8,2.9c-1.8-0.1-2.3-1.5-2.5-3.2c-1-10.2-1.6-20.5-3-30.7c-3.4-24.7,1.4-49,3-73.4c0.1-1.6,0.5-3.2,2.3-3.3   c2.5-0.2,3,1.9,3.2,3.7c0.8,6.4,1.3,12.9,1.9,19.3C53.5,278.1,54.6,289,55.7,300.1z" fill="#A8A8A8"/><path d="M35.6,300.5c-1.9,14.5-3.8,29-5.6,43.5c-0.2,1.4-0.5,2.9-2.2,2.8c-2.2-0.1-2.4-2.1-2.5-3.7   c-1.1-9.7-1.8-19.5-3.3-29.2c-2.5-16.7,1.1-33.1,2.7-49.5c0.3-2.6,0.3-5.3,0.6-8c0.2-1.4,0.4-3.3,2.4-3.3c2,0,2.1,1.7,2.3,3.2   c1.3,9.7,2.8,19.4,3.8,29.1C34.3,290.5,35.6,295.4,35.6,300.5z" fill="#A8A8A8"/><path d="M15.5,300.4c-1.5,8.9-3,18-4.5,27.2c-0.2,1.2-0.6,2.3-2.1,2.3c-1.8,0-2-1.5-2.2-2.8   c-2.2-14.4-4.9-28.7-1.5-43.3c0.8-3.4,1-6.9,1.5-10.3c0.2-1.3,0.4-2.9,2-3c1.7-0.2,2.1,1.3,2.3,2.7C12.6,282.1,14,291.1,15.5,300.4   z" fill="#A8A8A8"/></g></svg>